<?xml version="1.0" encoding="utf-8"?>
<!-- Generator: Circuit Diagram, cdlibrary.dll 4.0.0.0 -->
<!DOCTYPE svg PUBLIC "-//W3C//DTD SVG 1.1//EN" "http://www.w3.org/Graphics/SVG/1.1/DTD/svg11.dtd">
<svg version="1.1" width="220" height="260" xmlns="http://www.w3.org/2000/svg">
	<line x1="110" y1="200" x2="110" y2="228" style="stroke:rgb(0, 0, 0);stroke-linecap:square;stroke-width:2" />
	<line x1="102" y1="228" x2="118" y2="228" style="stroke:rgb(0, 0, 0);stroke-linecap:square;stroke-width:2" />
	<line x1="105" y1="234" x2="115" y2="234" style="stroke:rgb(0, 0, 0);stroke-linecap:square;stroke-width:2" />
	<line x1="108" y1="240" x2="112" y2="240" style="stroke:rgb(0, 0, 0);stroke-linecap:square;stroke-width:2" />
	<line x1="110" y1="40" x2="110" y2="50" style="stroke:rgb(0, 0, 0);stroke-linecap:square;stroke-width:2" />
	<text x="52" y="40" style="font-family:Arial;font-size:12px;text-anchor:end" dominant-baseline="middle" transform="rotate(0, 52, 40)">5V</text>
	<line x1="63" y1="40" x2="110" y2="40" style="stroke:rgb(0, 0, 0);stroke-linecap:square;stroke-width:2" />
	<ellipse cx="60" cy="40" rx="3" ry="3" style="fill-opacity:0;fill:rgb(0, 0, 0);stroke:rgb(0, 0, 0);stroke-width:2" />
	<text x="158" y="130" style="font-family:Arial;font-size:12px;text-anchor:start" dominant-baseline="middle" transform="rotate(0, 158, 130)">3.3V</text>
	<line x1="110" y1="130" x2="147" y2="130" style="stroke:rgb(0, 0, 0);stroke-linecap:square;stroke-width:2" />
	<ellipse cx="150" cy="130" rx="3" ry="3" style="fill-opacity:0;fill:rgb(0, 0, 0);stroke:rgb(0, 0, 0);stroke-width:2" />
	<line x1="110" y1="110" x2="110" y2="150" style="stroke:rgb(0, 0, 0);stroke-linecap:square;stroke-width:2" />
	<line x1="110" y1="200" x2="110" y2="220" style="stroke:rgb(0, 0, 0);stroke-linecap:square;stroke-width:2" />
	<line x1="110" y1="50" x2="110" y2="60" style="stroke:rgb(0, 0, 0);stroke-linecap:square;stroke-width:2" />
	<line x1="110" y1="150" x2="110" y2="155" style="stroke:rgb(0, 0, 0);stroke-linecap:square;stroke-width:2" />
	<line x1="110" y1="195" x2="110" y2="200" style="stroke:rgb(0, 0, 0);stroke-linecap:square;stroke-width:2" />
	<path d="M 110,155 L 110,157 L 103,160 L 117,166 L 103,172 L 117,178 L 103,184 L 117,190 L 110,193 L 110,195" style="fill-opacity:0;fill:rgb(0, 0, 0);stroke:rgb(0, 0, 0);stroke-linecap:square;stroke-width:2" />
	<text x="96" y="175" style="font-family:Arial;font-size:11px;text-anchor:end" dominant-baseline="middle" transform="rotate(0, 96, 175)">20 kΩ</text>
	<line x1="110" y1="60" x2="110" y2="65" style="stroke:rgb(0, 0, 0);stroke-linecap:square;stroke-width:2" />
	<line x1="110" y1="105" x2="110" y2="110" style="stroke:rgb(0, 0, 0);stroke-linecap:square;stroke-width:2" />
	<path d="M 110,65 L 110,67 L 103,70 L 117,76 L 103,82 L 117,88 L 103,94 L 117,100 L 110,103 L 110,105" style="fill-opacity:0;fill:rgb(0, 0, 0);stroke:rgb(0, 0, 0);stroke-linecap:square;stroke-width:2" />
	<text x="96" y="85" style="font-family:Arial;font-size:11px;text-anchor:end" dominant-baseline="middle" transform="rotate(0, 96, 85)">10 kΩ</text>
	<ellipse cx="110" cy="130" rx="2" ry="2" style="fill-opacity:1;fill:rgb(0, 0, 0);stroke:rgb(0, 0, 0);stroke-width:2" />
</svg>